<svg width="686" height="123" viewBox="0 0 686 123" fill="none" xmlns="http://www.w3.org/2000/svg">
<path fill-rule="evenodd" clip-rule="evenodd" d="M118.284 60.9202C118.439 59.2707 118.519 57.6006 118.519 55.9131C118.519 25.0331 91.9873 0 59.2593 0C26.5313 0 0 25.0331 0 55.9131C0 57.6006 0.0792355 59.2707 0.234388 60.9202H21.005V35.8845C21.005 34.9627 21.7524 34.2155 22.6743 34.2155H44.3749C45.2968 34.2155 46.0442 34.9627 46.0442 35.8845V60.9202H118.284ZM69.1358 27.2611C68.2139 27.2611 67.4665 28.0083 67.4665 28.9301V44.2297C67.4665 45.1515 68.2139 45.8988 69.1358 45.8988H80.4034C81.3253 45.8988 82.0727 45.1515 82.0727 44.2297V28.9301C82.0727 28.0083 81.3253 27.2611 80.4034 27.2611H69.1358ZM83.742 28.9301C83.742 28.0083 84.4893 27.2611 85.4113 27.2611H96.6789C97.6008 27.2611 98.3481 28.0083 98.3481 28.9301V44.2297C98.3481 45.1515 97.6008 45.8988 96.6789 45.8988H85.4113C84.4893 45.8988 83.742 45.1515 83.742 44.2297V28.9301ZM68.8576 28.2347C68.704 28.2347 68.5794 28.3592 68.5794 28.5129V35.9982C68.5794 36.1344 68.7547 36.1894 68.8326 36.0778L70.9743 33.0072C71.8137 31.8036 73.0123 30.8964 74.3986 30.4153L79.1229 28.7757C79.4192 28.6728 79.3453 28.2347 79.0317 28.2347H68.8576ZM52.4695 106.849C52.1354 107.952 53.0991 108.905 54.2515 108.905H64.2671C65.4195 108.905 66.3832 107.952 66.049 106.849C65.7135 105.742 65.109 104.723 64.2758 103.889C62.9453 102.559 61.1408 101.812 59.2593 101.812C57.3777 101.812 55.5732 102.559 54.2428 103.889C53.4096 104.723 52.805 105.742 52.4695 106.849ZM0.746873 64.8146H21.005V83.3132C21.005 84.235 21.7524 84.9823 22.6743 84.9823H44.3749C45.2968 84.9823 46.0442 84.235 46.0442 83.3132V64.8146H117.772C116.814 70.4646 114.959 75.832 112.349 80.7827L118.471 80.7827C118.571 80.7827 118.664 80.7276 118.711 80.6393C118.749 80.5684 118.753 80.4844 118.725 80.4089C118.522 79.8596 118.41 79.2632 118.41 78.6399C118.41 75.9057 120.557 73.6893 123.205 73.6893C125.853 73.6893 128 75.9057 128 78.6399C128 81.3741 125.853 83.5906 123.205 83.5906C123.102 83.5906 122.999 83.5872 122.897 83.5805C122.307 83.5418 121.701 83.7772 121.422 84.2973C121.035 85.0169 120.29 85.4005 119.536 85.3488C119.529 85.3483 119.523 85.3538 119.523 85.3607C119.523 85.3673 119.518 85.3726 119.511 85.3726L109.65 85.3502C101.656 97.5076 88.8571 106.558 73.7566 110.141C72.8731 117.361 66.7193 122.953 59.2593 122.953C51.7992 122.953 45.6455 117.361 44.762 110.141C22.0205 104.745 4.49979 86.9485 0.746873 64.8146ZM97.2353 73.1599C96.3134 73.1599 95.566 73.9071 95.566 74.8289V76.0807C95.566 77.0025 96.3134 77.7497 97.2353 77.7497H104.051C104.973 77.7497 105.721 77.0025 105.721 76.0807V74.8289C105.721 73.9071 104.973 73.1599 104.051 73.1599H97.2353ZM59.1897 116.833C64.2218 116.833 68.3012 112.754 68.3012 107.723C68.3012 102.692 64.2218 98.6128 59.1897 98.6128C54.1576 98.6128 50.0783 102.692 50.0783 107.723C50.0783 112.754 54.1576 116.833 59.1897 116.833ZM29.9079 41.3089C29.2932 41.3089 28.795 41.8071 28.795 42.4216V53.2704C28.795 53.8849 29.2932 54.3831 29.9079 54.3831H37.4196C38.0342 54.3831 38.5324 53.8849 38.5324 53.2704V42.4216C38.5324 41.8071 38.0342 41.3089 37.4196 41.3089H29.9079ZM41.4537 60.2248C42.3756 60.2248 43.1229 59.4775 43.1229 58.5557C43.1229 57.6339 42.3756 56.8867 41.4537 56.8867C40.5318 56.8867 39.7844 57.6339 39.7844 58.5557C39.7844 59.4775 40.5318 60.2248 41.4537 60.2248Z" fill="#11436D"/>
<path d="M205.392 72.4177C206.139 72.4177 206.802 72.7065 207.379 73.2841L212.781 79.1451C209.792 82.8486 206.105 85.6856 201.722 87.6563C197.373 89.627 192.141 90.6123 186.025 90.6123C180.554 90.6123 175.628 89.6779 171.245 87.8092C166.896 85.9405 163.175 83.3412 160.083 80.0115C156.992 76.6818 154.613 72.7065 152.948 68.0856C151.317 63.4648 150.502 58.4192 150.502 52.949C150.502 47.4107 151.385 42.3482 153.152 37.7613C154.919 33.1405 157.399 29.1652 160.593 25.8354C163.821 22.5057 167.66 19.9235 172.111 18.0887C176.562 16.22 181.489 15.2856 186.891 15.2856C192.259 15.2856 197.016 16.169 201.161 17.9358C205.341 19.7026 208.891 22.0131 211.813 24.8671L207.226 31.2378C206.954 31.6455 206.598 32.0022 206.156 32.308C205.748 32.6138 205.171 32.7667 204.423 32.7667C203.914 32.7667 203.387 32.6308 202.843 32.359C202.3 32.0532 201.705 31.6965 201.059 31.2887C200.414 30.847 199.666 30.3714 198.817 29.8617C197.968 29.352 196.982 28.8934 195.861 28.4856C194.74 28.0439 193.432 27.6872 191.937 27.4154C190.476 27.1096 188.777 26.9567 186.84 26.9567C183.544 26.9567 180.52 27.5513 177.768 28.7405C175.05 29.8957 172.706 31.5945 170.735 33.837C168.765 36.0455 167.236 38.7636 166.148 41.9914C165.061 45.1853 164.517 48.8378 164.517 52.949C164.517 57.0941 165.095 60.7806 166.25 64.0084C167.439 67.2362 169.036 69.9544 171.041 72.1629C173.046 74.3714 175.407 76.0702 178.125 77.2594C180.843 78.4146 183.765 78.9922 186.891 78.9922C188.76 78.9922 190.442 78.8903 191.937 78.6864C193.466 78.4826 194.859 78.1598 196.116 77.7181C197.407 77.2764 198.613 76.7158 199.734 76.0362C200.89 75.3227 202.028 74.4563 203.149 73.437C203.489 73.1312 203.846 72.8934 204.219 72.7235C204.593 72.5196 204.984 72.4177 205.392 72.4177Z" fill="#11436D"/>
<path d="M247.808 67.4741C244.173 67.6439 241.115 67.9667 238.634 68.4424C236.154 68.8841 234.166 69.4617 232.671 70.1752C231.176 70.8887 230.106 71.7212 229.461 72.6725C228.815 73.6239 228.492 74.6602 228.492 75.7814C228.492 77.9899 229.138 79.5698 230.429 80.5212C231.754 81.4725 233.47 81.9482 235.576 81.9482C238.159 81.9482 240.384 81.4895 242.253 80.5721C244.156 79.6208 246.007 78.1938 247.808 76.291V67.4741ZM218.962 44.7945C224.976 39.2903 232.213 36.5382 240.673 36.5382C243.731 36.5382 246.466 37.0478 248.878 38.0671C251.291 39.0524 253.329 40.4455 254.994 42.2463C256.659 44.0131 257.916 46.1366 258.766 48.6169C259.649 51.0972 260.091 53.8154 260.091 56.7714V89.7968H254.383C253.193 89.7968 252.276 89.627 251.631 89.2872C250.985 88.9134 250.475 88.1829 250.102 87.0957L248.98 83.3242C247.655 84.5134 246.364 85.5667 245.107 86.4841C243.85 87.3675 242.542 88.115 241.183 88.7266C239.824 89.3382 238.363 89.7968 236.8 90.1026C235.271 90.4424 233.572 90.6123 231.703 90.6123C229.495 90.6123 227.456 90.3235 225.587 89.7459C223.719 89.1343 222.105 88.2339 220.746 87.0447C219.387 85.8555 218.333 84.3775 217.586 82.6107C216.838 80.8439 216.465 78.7883 216.465 76.4439C216.465 75.1188 216.685 73.8107 217.127 72.5196C217.569 71.1945 218.282 69.9374 219.268 68.7482C220.287 67.559 221.595 66.4378 223.192 65.3845C224.789 64.3312 226.743 63.4138 229.053 62.6324C231.397 61.8509 234.115 61.2223 237.207 60.7466C240.299 60.237 243.833 59.9312 247.808 59.8293V56.7714C247.808 53.2717 247.061 50.6895 245.566 49.0246C244.071 47.3258 241.913 46.4764 239.093 46.4764C237.054 46.4764 235.356 46.7142 233.997 47.1899C232.671 47.6656 231.499 48.2092 230.48 48.8208C229.461 49.3984 228.526 49.925 227.677 50.4007C226.861 50.8764 225.944 51.1142 224.925 51.1142C224.041 51.1142 223.294 50.8934 222.682 50.4517C222.071 49.976 221.578 49.4324 221.204 48.8208L218.962 44.7945Z" fill="#11436D"/>
<path d="M271.947 89.7968V37.5065H279.642C281.273 37.5065 282.343 38.271 282.853 39.7999L283.669 43.6733C284.586 42.654 285.537 41.7196 286.523 40.8702C287.542 40.0208 288.612 39.2903 289.733 38.6787C290.889 38.0671 292.112 37.5914 293.403 37.2517C294.728 36.8779 296.172 36.691 297.735 36.691C301.031 36.691 303.732 37.5914 305.838 39.3922C307.979 41.159 309.576 43.5204 310.629 46.4764C311.445 44.7436 312.464 43.2656 313.687 42.0424C314.91 40.7853 316.252 39.766 317.713 38.9845C319.174 38.203 320.72 37.6254 322.351 37.2517C324.016 36.8779 325.681 36.691 327.346 36.691C330.234 36.691 332.799 37.1327 335.042 38.0161C337.284 38.8995 339.17 40.1907 340.699 41.8895C342.228 43.5883 343.383 45.6609 344.164 48.1073C344.98 50.5536 345.387 53.3567 345.387 56.5165V89.7968H332.799V56.5165C332.799 53.1868 332.069 50.6895 330.608 49.0246C329.147 47.3258 327.006 46.4764 324.186 46.4764C322.895 46.4764 321.689 46.6972 320.567 47.1389C319.48 47.5806 318.512 48.2262 317.662 49.0756C316.847 49.891 316.201 50.9273 315.726 52.1845C315.25 53.4416 315.012 54.8856 315.012 56.5165V89.7968H302.373V56.5165C302.373 53.0169 301.659 50.4687 300.232 48.8717C298.839 47.2748 296.784 46.4764 294.065 46.4764C292.231 46.4764 290.515 46.9351 288.918 47.8524C287.355 48.7358 285.894 49.959 284.535 51.5219V89.7968H271.947Z" fill="#11436D"/>
<path d="M369.942 76.2401C371.369 77.9729 372.915 79.1961 374.579 79.9096C376.278 80.6231 378.113 80.9799 380.084 80.9799C381.986 80.9799 383.702 80.6231 385.231 79.9096C386.76 79.1961 388.051 78.1088 389.105 76.6478C390.192 75.1868 391.024 73.3521 391.602 71.1436C392.179 68.9011 392.468 66.2679 392.468 63.2439C392.468 60.186 392.213 57.6038 391.704 55.4972C391.228 53.3567 390.532 51.6239 389.614 50.2988C388.697 48.9737 387.576 48.0053 386.25 47.3938C384.959 46.7822 383.481 46.4764 381.816 46.4764C379.2 46.4764 376.975 47.037 375.14 48.1582C373.305 49.2455 371.572 50.7914 369.942 52.7961V76.2401ZM369.279 44.6416C371.42 42.2293 373.849 40.2756 376.567 38.7806C379.285 37.2856 382.479 36.5382 386.149 36.5382C389.003 36.5382 391.602 37.1327 393.946 38.3219C396.325 39.5111 398.363 41.2439 400.062 43.5204C401.795 45.7629 403.12 48.549 404.037 51.8787C404.989 55.1744 405.464 58.9629 405.464 63.2439C405.464 67.1513 404.938 70.7698 403.884 74.0995C402.831 77.4293 401.319 80.3173 399.349 82.7636C397.412 85.21 395.05 87.1297 392.264 88.5227C389.512 89.8818 386.42 90.5613 382.989 90.5613C380.067 90.5613 377.569 90.1196 375.497 89.2362C373.424 88.3188 371.572 87.0617 369.942 85.4648V106.87H357.353V37.5065H365.049C366.68 37.5065 367.75 38.271 368.26 39.7999L369.279 44.6416Z" fill="#11436D"/>
<path d="M452.746 48.566C452.372 49.0416 451.998 49.4154 451.625 49.6872C451.285 49.959 450.775 50.0949 450.096 50.0949C449.45 50.0949 448.821 49.908 448.21 49.5343C447.598 49.1266 446.868 48.6849 446.018 48.2092C445.169 47.6995 444.15 47.2578 442.96 46.8841C441.805 46.4764 440.361 46.2725 438.628 46.2725C436.42 46.2725 434.483 46.6802 432.818 47.4957C431.154 48.2771 429.76 49.4154 428.639 50.9104C427.552 52.4053 426.737 54.2231 426.193 56.3636C425.649 58.4702 425.377 60.8656 425.377 63.5497C425.377 66.3358 425.666 68.8161 426.244 70.9907C426.855 73.1652 427.722 74.9999 428.843 76.4949C429.964 77.9559 431.323 79.0772 432.92 79.8586C434.517 80.6061 436.318 80.9799 438.323 80.9799C440.327 80.9799 441.941 80.742 443.164 80.2663C444.421 79.7567 445.475 79.2131 446.324 78.6355C447.174 78.0239 447.904 77.4802 448.516 77.0046C449.161 76.4949 449.875 76.2401 450.656 76.2401C451.676 76.2401 452.44 76.6308 452.95 77.4123L456.568 81.9992C455.175 83.63 453.663 85.0061 452.032 86.1273C450.401 87.2146 448.703 88.098 446.936 88.7775C445.203 89.4231 443.402 89.8818 441.533 90.1536C439.699 90.4254 437.864 90.5613 436.029 90.5613C432.801 90.5613 429.76 89.9667 426.906 88.7775C424.052 87.5544 421.555 85.7876 419.415 83.4771C417.274 81.1667 415.575 78.3466 414.318 75.0169C413.095 71.6532 412.483 67.8308 412.483 63.5497C412.483 59.7104 413.027 56.1598 414.114 52.898C415.235 49.6022 416.866 46.7652 419.007 44.3868C421.147 41.9744 423.798 40.0887 426.957 38.7297C430.117 37.3706 433.753 36.691 437.864 36.691C441.771 36.691 445.186 37.3196 448.108 38.5768C451.064 39.8339 453.714 41.6347 456.059 43.9791L452.746 48.566Z" fill="#11436D"/>
<path d="M492.083 67.4741C488.447 67.6439 485.39 67.9667 482.909 68.4424C480.429 68.8841 478.441 69.4617 476.946 70.1752C475.451 70.8887 474.381 71.7212 473.736 72.6725C473.09 73.6239 472.767 74.6602 472.767 75.7814C472.767 77.9899 473.413 79.5698 474.704 80.5212C476.029 81.4725 477.745 81.9482 479.851 81.9482C482.434 81.9482 484.659 81.4895 486.528 80.5721C488.43 79.6208 490.282 78.1938 492.083 76.291V67.4741ZM463.237 44.7945C469.251 39.2903 476.488 36.5382 484.948 36.5382C488.006 36.5382 490.741 37.0478 493.153 38.0671C495.566 39.0524 497.604 40.4455 499.269 42.2463C500.934 44.0131 502.191 46.1366 503.041 48.6169C503.924 51.0972 504.366 53.8154 504.366 56.7714V89.7968H498.658C497.468 89.7968 496.551 89.627 495.905 89.2872C495.26 88.9134 494.75 88.1829 494.376 87.0957L493.255 83.3242C491.93 84.5134 490.639 85.5667 489.382 86.4841C488.125 87.3675 486.817 88.115 485.458 88.7266C484.098 89.3382 482.637 89.7968 481.074 90.1026C479.546 90.4424 477.847 90.6123 475.978 90.6123C473.769 90.6123 471.731 90.3235 469.862 89.7459C467.993 89.1343 466.38 88.2339 465.02 87.0447C463.661 85.8555 462.608 84.3775 461.861 82.6107C461.113 80.8439 460.739 78.7883 460.739 76.4439C460.739 75.1188 460.96 73.8107 461.402 72.5196C461.844 71.1945 462.557 69.9374 463.542 68.7482C464.562 67.559 465.87 66.4378 467.467 65.3845C469.064 64.3312 471.017 63.4138 473.328 62.6324C475.672 61.8509 478.39 61.2223 481.482 60.7466C484.574 60.237 488.108 59.9312 492.083 59.8293V56.7714C492.083 53.2717 491.336 50.6895 489.841 49.0246C488.346 47.3258 486.188 46.4764 483.368 46.4764C481.329 46.4764 479.63 46.7142 478.271 47.1899C476.946 47.6656 475.774 48.2092 474.755 48.8208C473.736 49.3984 472.801 49.925 471.952 50.4007C471.136 50.8764 470.219 51.1142 469.2 51.1142C468.316 51.1142 467.569 50.8934 466.957 50.4517C466.346 49.976 465.853 49.4324 465.479 48.8208L463.237 44.7945Z" fill="#11436D"/>
<path d="M568.274 89.7968H555.685V46.9351H531.426V75.2717C531.426 76.9026 531.817 78.1768 532.598 79.0941C533.413 80.0115 534.518 80.4702 535.911 80.4702C536.692 80.4702 537.338 80.3853 537.847 80.2154C538.391 80.0115 538.85 79.8077 539.223 79.6038C539.631 79.3999 539.988 79.2131 540.294 79.0432C540.6 78.8393 540.905 78.7374 541.211 78.7374C541.585 78.7374 541.891 78.8393 542.128 79.0432C542.366 79.2131 542.621 79.4849 542.893 79.8586L546.664 85.9744C544.83 87.5034 542.723 88.6586 540.345 89.4401C537.966 90.2215 535.503 90.6123 532.955 90.6123C528.402 90.6123 524.902 89.3381 522.456 86.7899C520.044 84.2076 518.837 80.6571 518.837 76.1382V46.9351H513.486C512.806 46.9351 512.229 46.7142 511.753 46.2725C511.277 45.8308 511.04 45.1683 511.04 44.2849V39.2903L519.449 37.8632L522.099 23.6439C522.269 22.9644 522.592 22.4378 523.067 22.064C523.543 21.6903 524.155 21.5034 524.902 21.5034H531.426V37.9652H568.274V89.7968Z" fill="#11436D"/>
<path d="M604.261 36.691C608.134 36.691 611.651 37.3196 614.81 38.5768C618.004 39.8339 620.722 41.6177 622.965 43.9281C625.241 46.2385 626.991 49.0586 628.214 52.3883C629.438 55.7181 630.049 59.4385 630.049 63.5497C630.049 67.6949 629.438 71.4324 628.214 74.7621C626.991 78.0918 625.241 80.9289 622.965 83.2733C620.722 85.6177 618.004 87.4185 614.81 88.6756C611.651 89.9327 608.134 90.5613 604.261 90.5613C600.353 90.5613 596.803 89.9327 593.609 88.6756C590.415 87.4185 587.68 85.6177 585.404 83.2733C583.161 80.9289 581.411 78.0918 580.154 74.7621C578.931 71.4324 578.319 67.6949 578.319 63.5497C578.319 59.4385 578.931 55.7181 580.154 52.3883C581.411 49.0586 583.161 46.2385 585.404 43.9281C587.68 41.6177 590.415 39.8339 593.609 38.5768C596.803 37.3196 600.353 36.691 604.261 36.691ZM604.261 80.8779C608.61 80.8779 611.821 79.4169 613.893 76.4949C616 73.5729 617.053 69.2918 617.053 63.6517C617.053 58.0115 616 53.7134 613.893 50.7575C611.821 47.8015 608.61 46.3235 604.261 46.3235C599.844 46.3235 596.565 47.8185 594.424 50.8084C592.318 53.7644 591.265 58.0455 591.265 63.6517C591.265 69.2578 592.318 73.5389 594.424 76.4949C596.565 79.4169 599.844 80.8779 604.261 80.8779Z" fill="#11436D"/>
<path d="M651.426 43.9281C652.479 42.8748 653.583 41.9065 654.739 41.0231C655.928 40.1057 657.168 39.3412 658.459 38.7297C659.784 38.0841 661.194 37.5914 662.689 37.2517C664.184 36.8779 665.815 36.691 667.582 36.691C670.436 36.691 672.967 37.1837 675.176 38.169C677.384 39.1204 679.219 40.4795 680.68 42.2463C682.175 43.9791 683.296 46.0687 684.044 48.515C684.825 50.9273 685.216 53.5945 685.216 56.5165V89.7968H672.627V56.5165C672.627 53.3227 671.897 50.8594 670.436 49.1266C668.975 47.3598 666.749 46.4764 663.759 46.4764C661.585 46.4764 659.546 46.969 657.644 47.9544C655.741 48.9397 653.94 50.2818 652.241 51.9806V89.7968H639.653V37.5065H647.349C648.98 37.5065 650.05 38.271 650.559 39.7999L651.426 43.9281Z" fill="#11436D"/>
<path d="M558.156 21.5404C555.929 17.3044 556.678 17.162 556.678 17.162L563.575 22.0269L570.473 17.162C570.473 17.162 571.117 17.5022 568.994 21.5404C567.593 24.2066 563.575 29.8107 563.575 29.8107C563.575 29.8107 559.557 24.2066 558.156 21.5404Z" fill="#11436D"/>
<path d="M563.575 13.2701C562.215 13.2701 561.112 14.3592 561.112 15.7026C561.112 17.046 562.215 18.135 563.575 18.135C564.936 18.135 566.039 17.046 566.039 15.7026C566.039 14.3592 564.936 13.2701 563.575 13.2701Z" fill="#11436D"/>
<path fill-rule="evenodd" clip-rule="evenodd" d="M563.575 22.9999C567.657 22.9999 570.965 19.7328 570.965 15.7026C570.965 11.6724 567.657 8.40527 563.575 8.40527C559.494 8.40527 556.185 11.6724 556.185 15.7026C556.185 19.7328 559.494 22.9999 563.575 22.9999ZM560.127 15.7026C560.127 13.8218 561.671 12.2972 563.575 12.2972C565.48 12.2972 567.024 13.8218 567.024 15.7026C567.024 17.5833 565.48 19.108 563.575 19.108C561.671 19.108 560.127 17.5833 560.127 15.7026Z" fill="#11436D"/>
</svg>
